<svg width="800" height="182" viewBox="0 0 800 182" fill="none" xmlns="http://www.w3.org/2000/svg">
    <path fill-rule="evenodd" clip-rule="evenodd"
        d="M92.3 42.54H138.45V88.69H92.3L69.22 65.61L46.31 42.53H46.14V0.570007H92.29V42.54H92.3Z"
        fill="url(#paint0_linear_3_4)" />
    <path fill-rule="evenodd" clip-rule="evenodd" d="M46.15 88.69H92.3V134.84H46.15V88.69Z"
        fill="url(#paint1_linear_3_4)" />
    <path fill-rule="evenodd" clip-rule="evenodd"
        d="M92.3 181C79.85 181.16 69.04 176.57 59.88 167.26C50.72 157.94 46.14 147.14 46.14 134.85H122.31L138.45 181H92.3Z"
        fill="url(#paint2_linear_3_4)" />
    <path fill-rule="evenodd" clip-rule="evenodd"
        d="M16.34 42.54H46.15V88.69H0L11.68 55.71L16.34 42.54Z" fill="url(#paint3_linear_3_4)" />
    <path fill-rule="evenodd" clip-rule="evenodd"
        d="M276.41 55.61V129.26C276.41 130.74 275.72 131.96 274.42 132.79C273.19 133.55 271.76 133.95 270.3 133.91C268.74 133.91 267.36 133.54 266.18 132.79C264.88 131.96 264.19 130.75 264.19 129.26V55.61H245.77C244.36 55.64 243.04 54.95 242.26 53.78C241.49 52.68 241.11 51.32 241.11 49.76C241.11 48.35 241.49 47.07 242.26 45.98C243.04 44.81 244.37 44.12 245.77 44.15H294.71C296.12 44.12 297.45 44.81 298.23 45.98C298.99 47.08 299.38 48.35 299.38 49.76C299.38 51.24 299 52.57 298.24 53.71C297.48 54.92 296.14 55.65 294.71 55.62H276.41V55.61ZM355.41 113.76H325.37L320.3 130.89C319.67 132.88 318 133.91 315.56 133.91C313.92 133.91 312.35 133.46 310.86 132.56C309.24 131.58 308.37 130.26 308.37 128.66C308.37 128.34 308.47 127.95 308.65 127.39L333.18 47.64C334.06 44.82 336.57 43.42 340.44 43.42C344.31 43.42 346.83 44.82 347.71 47.65L372.29 127.71C372.29 127.78 372.3 127.85 372.32 127.93C372.38 128.13 372.41 128.34 372.41 128.55C372.41 130.06 371.54 131.37 369.95 132.43C368.52 133.4 366.83 133.92 365.1 133.92C362.74 133.92 361.11 132.89 360.48 130.88C360.48 130.87 355.41 113.76 355.41 113.76ZM328.29 103.37H352.38L340.44 63.05L328.29 103.37ZM386.67 107.43V71.34C386.67 62.11 389.16 55.22 394.18 50.76C399.16 46.34 405.64 44.14 413.59 44.14C421.68 44.14 428.21 46.19 433.15 50.32C438.12 54.48 440.63 59.75 440.63 66.06C440.63 68.48 440.16 70.21 439.09 71.21C438.06 72.19 436.52 72.64 434.52 72.64C430.81 72.64 428.61 71.13 428.41 68.16C427.96 59.55 423.23 55.38 413.83 55.38C403.77 55.38 398.9 60.56 398.9 71.34V107.43C398.9 118.21 403.89 123.4 414.19 123.4C417.19 123.4 419.65 122.98 421.6 122.17C423.48 121.37 424.85 120.24 425.73 118.76C426.69 117.16 427.31 115.81 427.6 114.72C427.91 113.57 428.18 112.02 428.41 110.09C428.72 107.16 430.9 105.66 434.52 105.66C436.54 105.66 438.08 106.14 439.11 107.17C440.15 108.21 440.62 109.94 440.62 112.35C440.62 118.74 438.1 124.09 433.09 128.33C428.11 132.54 421.56 134.63 413.46 134.63C405.6 134.63 399.15 132.42 394.18 128.01C389.16 123.55 386.67 116.66 386.67 107.43ZM490.55 55.61V129.26C490.55 130.74 489.86 131.96 488.56 132.79C487.33 133.55 485.9 133.95 484.44 133.91C482.88 133.91 481.5 133.54 480.32 132.79C479.02 131.96 478.33 130.75 478.33 129.26V55.61H459.91C458.5 55.64 457.17 54.95 456.39 53.78C455.62 52.68 455.24 51.32 455.24 49.76C455.24 48.35 455.62 47.07 456.39 45.98C457.17 44.81 458.5 44.12 459.91 44.15H508.85C510.26 44.12 511.58 44.81 512.36 45.98C513.13 47.08 513.51 48.35 513.51 49.76C513.51 51.24 513.13 52.57 512.37 53.71C511.61 54.92 510.27 55.64 508.84 55.62C508.85 55.61 490.56 55.61 490.55 55.61ZM567.67 113.76H537.63L532.56 130.89C531.93 132.88 530.26 133.91 527.83 133.91C526.19 133.91 524.61 133.46 523.13 132.56C521.51 131.58 520.64 130.26 520.64 128.66C520.64 128.34 520.74 127.95 520.93 127.39L545.46 47.64C546.34 44.82 548.85 43.42 552.73 43.42C556.59 43.42 559.12 44.82 559.99 47.65L584.57 127.71C584.57 127.78 584.58 127.85 584.6 127.93C584.66 128.13 584.69 128.34 584.69 128.55C584.69 130.06 583.82 131.37 582.23 132.43C580.8 133.4 579.11 133.92 577.38 133.92C575.02 133.92 573.39 132.89 572.76 130.88C572.73 130.87 567.67 113.76 567.67 113.76ZM540.55 103.37H564.64L552.71 63.05L540.55 103.37ZM646.3 85.29C649.58 86.91 652.14 89.1 653.98 91.85C656.2 95.16 657.29 99.8 657.29 105.75V107.91C657.29 116.82 655.03 123.41 650.46 127.63C645.92 131.82 639.89 133.91 632.42 133.91H608.97C607.37 133.91 606.04 133.49 604.99 132.65C603.91 131.78 603.34 130.66 603.34 129.37V48.79C603.34 47.33 603.97 46.12 605.18 45.28C606.28 44.52 607.56 44.13 608.97 44.13H629.65C637.38 44.13 643.54 45.66 648.1 48.75C652.8 51.93 655.12 57.62 655.12 65.7C655.12 70.82 654.19 75.16 652.29 78.72C650.77 81.58 648.77 83.78 646.3 85.29ZM615.55 122.67H630.73C640.39 122.67 645.06 117.68 645.06 107.3V105.26C645.06 100.01 643.85 96.29 641.48 94.04C639.1 91.77 635.53 90.61 630.73 90.61H615.55V122.67ZM615.55 80.11H629.52C634.24 80.11 637.63 79.07 639.73 77.05C641.82 75.04 642.89 71.76 642.89 67.14C642.89 59.21 638.47 55.37 629.16 55.37H615.55V80.11ZM692.67 122.67H724.43C725.85 122.67 726.99 123.33 727.74 124.56C728.41 125.65 728.74 126.9 728.74 128.29C728.74 129.68 728.41 130.93 727.74 132.02C727.07 133.21 725.8 133.93 724.43 133.9H686.07C684.65 133.9 683.38 133.52 682.28 132.75C681.11 131.97 680.41 130.65 680.44 129.24V48.66C680.41 47.21 681.19 45.87 682.46 45.17C683.63 44.47 685.01 44.12 686.55 44.12C688.1 44.12 689.47 44.46 690.64 45.17C691.91 45.87 692.68 47.21 692.66 48.66C692.67 48.67 692.67 122.67 692.67 122.67ZM758.23 54.65V82.99H775.93C777.3 82.99 778.46 83.56 779.3 84.66C780.1 85.73 780.51 87.03 780.48 88.36C780.48 89.62 780.11 90.77 779.38 91.8C778.57 92.92 777.39 93.5 775.94 93.5H758.24V121.96H794.46C795.86 121.96 797.02 122.6 797.85 123.79C798.62 124.89 799 126.21 799 127.69C799 129.1 798.64 130.35 797.91 131.41C797.14 132.56 795.83 133.24 794.45 133.19H751.64C750.22 133.19 748.95 132.81 747.85 132.04C746.67 131.26 745.98 129.94 746.01 128.53V48.07C746.01 46.6 746.64 45.4 747.85 44.56C748.95 43.8 750.23 43.41 751.64 43.41H794.45C795.92 43.41 797.11 44.02 797.91 45.19C798.63 46.25 799 47.5 799 48.91C799 50.39 798.62 51.71 797.85 52.81C797.11 53.96 795.83 54.65 794.46 54.64H758.23V54.65Z"
        fill="white" stroke="white" stroke-width="0.5" />
    <defs>
        <linearGradient id="paint0_linear_3_4" x1="92.3028" y1="88.6933" x2="92.3028" y2="0.58571"
            gradientUnits="userSpaceOnUse">
            <stop stop-color="#F81E13" />
            <stop offset="1" stop-color="#FF3900" />
        </linearGradient>
        <linearGradient id="paint1_linear_3_4" x1="90.9498" y1="87.4831" x2="59.272" y2="122.9"
            gradientUnits="userSpaceOnUse">
            <stop stop-color="#43FFCD" />
            <stop offset="1" stop-color="#4785F0" />
        </linearGradient>
        <linearGradient id="paint2_linear_3_4" x1="92.3028" y1="180.01" x2="92.3028" y2="92.6201"
            gradientUnits="userSpaceOnUse">
            <stop stop-color="#F71764" />
            <stop offset="1" stop-color="#F81E13" />
        </linearGradient>
        <linearGradient id="paint3_linear_3_4" x1="50.2366" y1="46.6269" x2="4.085" y2="92.7785"
            gradientUnits="userSpaceOnUse">
            <stop stop-color="#FDF400" />
            <stop offset="1" stop-color="#FA4A00" />
        </linearGradient>
    </defs>
</svg>